<svg width="500" height="500" viewBox="0 0 500 500" fill="none" xmlns="http://www.w3.org/2000/svg">
<path d="M125 31.25L479.931 126.353L384.827 481.284L29.8966 386.181L125 31.25Z" fill="#335FFF"/>
<path d="M206.281 325H173.081L120.681 185H149.881L188.081 291.8H191.281L229.481 185H258.681L206.281 325ZM356.055 270.6L387.655 325H356.055L325.655 272.2H303.055V325H275.855V185H328.055C358.855 185 380.255 196.8 380.255 228.2C380.255 248.6 370.455 260.8 356.055 267V270.6ZM332.055 211.4H303.055V245.8H332.055C344.855 245.8 352.655 240.2 352.655 228.2C352.655 216.2 344.855 211.4 332.055 211.4Z" fill="white"/>
</svg>
