<svg width="24" height="24" viewBox="0 0 24 24" fill="none" xmlns="http://www.w3.org/2000/svg">
<path fill-rule="evenodd" clip-rule="evenodd" d="M2 6.30769V16.1154C2 16.8804 2.29266 17.6141 2.81359 18.1551C3.33453 18.6961 4.04107 19 4.77778 19H5.95556C6.45534 18.999 6.9485 18.8813 7.39855 18.6556C7.84861 18.4299 8.24403 18.102 8.55556 17.6962L10.2667 15.4808C10.4749 15.2112 10.7387 14.9937 11.0388 14.8443C11.3388 14.6948 11.6673 14.6172 12 14.6172C12.3327 14.6172 12.6612 14.6948 12.9613 14.8443C13.2613 14.9937 13.5251 15.2112 13.7333 15.4808L15.4444 17.6962C15.756 18.102 16.1514 18.4299 16.6014 18.6556C17.0515 18.8813 17.5447 18.999 18.0444 19H19.2222C19.9589 19 20.6655 18.6961 21.1864 18.1551C21.7073 17.6141 22 16.8804 22 16.1154V6.30769C22 5.69565 21.7659 5.10868 21.3491 4.67591C20.9324 4.24313 20.3671 4 19.7778 4H4.22222C3.63285 4 3.06762 4.24313 2.65087 4.67591C2.23413 5.10868 2 5.69565 2 6.30769ZM6.76988 11.739C6.56151 11.5226 6.44444 11.2291 6.44444 10.9231C6.44444 10.6171 6.56151 10.3236 6.76988 10.1072C6.97826 9.8908 7.26087 9.76923 7.55556 9.76923C7.85024 9.76923 8.13286 9.8908 8.34123 10.1072C8.5496 10.3236 8.66667 10.6171 8.66667 10.9231C8.66667 11.2291 8.5496 11.5226 8.34123 11.739C8.13286 11.9554 7.85024 12.0769 7.55556 12.0769C7.26087 12.0769 6.97826 11.9554 6.76988 11.739ZM15.6588 11.739C15.4504 11.5226 15.3333 11.2291 15.3333 10.9231C15.3333 10.6171 15.4504 10.3236 15.6588 10.1072C15.8671 9.8908 16.1498 9.76923 16.4444 9.76923C16.7391 9.76923 17.0217 9.8908 17.2301 10.1072C17.4385 10.3236 17.5556 10.6171 17.5556 10.9231C17.5556 11.2291 17.4385 11.5226 17.2301 11.739C17.0217 11.9554 16.7391 12.0769 16.4444 12.0769C16.1498 12.0769 15.8671 11.9554 15.6588 11.739Z" fill="white"/>
<path fill-rule="evenodd" clip-rule="evenodd" d="M1.93055 3.98227C2.53168 3.35802 3.3552 3 4.22222 3H19.7778C20.6448 3 21.4683 3.35802 22.0694 3.98227C22.6693 4.60522 23 5.44236 23 6.30769V16.1154C23 17.1337 22.6108 18.1176 21.9067 18.8488C21.2014 19.5812 20.2366 20 19.2222 20L18.0424 20C17.3865 19.9987 16.7407 19.8441 16.1532 19.5495C15.5664 19.2552 15.0542 18.8296 14.6524 18.3066C14.652 18.3061 14.6516 18.3056 14.6512 18.3051L12.942 16.0921C12.942 16.0921 12.942 16.0922 12.942 16.0921C12.8245 15.9401 12.678 15.8204 12.5153 15.7393C12.3528 15.6583 12.1768 15.6172 12 15.6172C11.8232 15.6172 11.6472 15.6583 11.4847 15.7393C11.322 15.8204 11.1756 15.94 11.0581 16.092C11.0581 16.0921 11.0581 16.092 11.0581 16.092L9.3488 18.3051C9.34847 18.3055 9.34814 18.3059 9.34781 18.3064C8.94598 18.8294 8.43368 19.2552 7.84682 19.5495C7.25932 19.8441 6.61351 19.9987 5.95759 20L4.77778 20C3.76341 20 2.79858 19.5812 2.09327 18.8488C1.3892 18.1176 1 17.1337 1 16.1154V6.30769C1 5.44236 1.33067 4.60523 1.93055 3.98227ZM4.22222 5C3.91051 5 3.60357 5.12824 3.37119 5.36955C3.13759 5.61214 3 5.94895 3 6.30769V16.1154C3 16.6271 3.19612 17.1107 3.53391 17.4615C3.87047 17.811 4.31872 18 4.77778 18H5.95438C6.29773 17.9992 6.63794 17.9183 6.95028 17.7617C7.26305 17.6048 7.54123 17.3753 7.76231 17.0872L7.76414 17.0849L9.47525 14.8695C9.77419 14.4826 10.1555 14.1671 10.5928 13.9492C11.0303 13.7312 11.5113 13.6172 12 13.6172C12.4887 13.6172 12.9697 13.7312 13.4072 13.9492C13.8445 14.1671 14.2257 14.4825 14.5247 14.8694L16.2377 17.0872C16.4588 17.3753 16.737 17.6048 17.0497 17.7617C17.3621 17.9183 17.7023 17.9992 18.0456 18H19.2222C19.6813 18 20.1295 17.811 20.4661 17.4615C20.8039 17.1107 21 16.6271 21 16.1154V6.30769C21 5.94895 20.8624 5.61214 20.6288 5.36955C20.3964 5.12824 20.0895 5 19.7778 5H4.22222ZM6.04956 9.41354C6.44231 9.00569 6.98321 8.76923 7.55556 8.76923C8.1279 8.76923 8.6688 9.00569 9.06155 9.41354C9.45306 9.82011 9.66667 10.3638 9.66667 10.9231C9.66667 11.4824 9.45306 12.026 9.06155 12.4326C8.6688 12.8405 8.1279 13.0769 7.55556 13.0769C6.98321 13.0769 6.44231 12.8405 6.04956 12.4326C5.65805 12.026 5.44444 11.4824 5.44444 10.9231C5.44444 10.3638 5.65805 9.82011 6.04956 9.41354ZM7.55556 10.7692C7.53853 10.7692 7.5142 10.7759 7.4902 10.8008C7.46497 10.827 7.44444 10.8704 7.44444 10.9231C7.44444 10.9758 7.46497 11.0191 7.4902 11.0453C7.5142 11.0702 7.53853 11.0769 7.55556 11.0769C7.57258 11.0769 7.59691 11.0702 7.62091 11.0453C7.64614 11.0191 7.66667 10.9758 7.66667 10.9231C7.66667 10.8704 7.64614 10.827 7.62091 10.8008C7.59691 10.7759 7.57258 10.7692 7.55556 10.7692ZM14.9385 9.41354C15.3312 9.00569 15.8721 8.76923 16.4444 8.76923C17.0168 8.76923 17.5577 9.00569 17.9504 9.41354C18.342 9.82012 18.5556 10.3638 18.5556 10.9231C18.5556 11.4824 18.342 12.026 17.9504 12.4326C17.5577 12.8405 17.0168 13.0769 16.4444 13.0769C15.8721 13.0769 15.3312 12.8405 14.9385 12.4326C14.5469 12.026 14.3333 11.4824 14.3333 10.9231C14.3333 10.3638 14.5469 9.82011 14.9385 9.41354ZM16.4444 10.7692C16.4274 10.7692 16.4031 10.7759 16.3791 10.8008C16.3539 10.827 16.3333 10.8704 16.3333 10.9231C16.3333 10.9758 16.3539 11.0191 16.3791 11.0453C16.4031 11.0702 16.4274 11.0769 16.4444 11.0769C16.4615 11.0769 16.4858 11.0702 16.5098 11.0453C16.535 11.0191 16.5556 10.9758 16.5556 10.9231C16.5556 10.8704 16.535 10.827 16.5098 10.8008C16.4858 10.7759 16.4615 10.7692 16.4444 10.7692Z" fill="black"/>
</svg>
