<svg width="24" height="27" viewBox="0 0 24 27" fill="none" xmlns="http://www.w3.org/2000/svg">
<g clip-path="url(#clip0_1233_2)">
<path d="M21.4 4.61993C22.19 5.07604 22.8461 5.73195 23.3025 6.52182C23.7589 7.31168 23.9994 8.2077 24 9.11993V16.9999C24.0004 17.9124 23.7603 18.8088 23.3038 19.5988C22.8474 20.3889 22.1907 21.0446 21.4 21.4999L14.6 25.4299C13.8098 25.8873 12.913 26.1281 12 26.1281C11.087 26.1281 10.1902 25.8873 9.4 25.4299L2.6 21.4799C1.81224 21.0263 1.15745 20.3737 0.701154 19.5875C0.244862 18.8012 0.00307778 17.909 0 16.9999L0 9.11993C0.000584652 8.2077 0.241134 7.31168 0.697501 6.52182C1.15387 5.73195 1.80999 5.07604 2.6 4.61993L9.4 0.699928C10.1902 0.242551 11.087 0.00170898 12 0.00170898C12.913 0.00170898 13.8098 0.242551 14.6 0.699928L21.4 4.61993ZM10.31 2.47993L3.69 6.30993C3.17517 6.60363 2.74748 7.02866 2.45058 7.54165C2.15368 8.05464 1.9982 8.63722 2 9.22993V16.8799C1.99922 17.4724 2.15514 18.0546 2.45194 18.5674C2.74874 19.0802 3.17586 19.5054 3.69 19.7999L10.31 23.6299C10.8245 23.9246 11.4071 24.0797 12 24.0797C12.5929 24.0797 13.1755 23.9246 13.69 23.6299L20.31 19.7999C20.8241 19.5054 21.2513 19.0802 21.5481 18.5674C21.8449 18.0546 22.0008 17.4724 22 16.8799V9.22993C22.0018 8.63722 21.8463 8.05464 21.5494 7.54165C21.2525 7.02866 20.8248 6.60363 20.31 6.30993L13.69 2.47993C13.1755 2.18521 12.5929 2.03016 12 2.03016C11.4071 2.03016 10.8245 2.18521 10.31 2.47993ZM13.39 4.61993L18.61 7.61993C19.0286 7.86157 19.377 8.20817 19.6207 8.62554C19.8645 9.04291 19.9952 9.51662 20 9.99993V15.9999C20.0007 16.487 19.8725 16.9657 19.6284 17.3872C19.3842 17.8087 19.0329 18.1581 18.61 18.3999L13.39 21.3999C12.9681 21.6459 12.4884 21.7755 12 21.7755C11.5116 21.7755 11.0319 21.6459 10.61 21.3999L5.39 18.3999C4.97728 18.1641 4.63246 17.8257 4.38894 17.4175C4.14541 17.0093 4.01144 16.5451 4 16.0699V9.99993C4.00653 9.51832 4.13808 9.04667 4.38175 8.63121C4.62542 8.21574 4.97285 7.87071 5.39 7.62993L10.61 4.62993C11.0319 4.38396 11.5116 4.25436 12 4.25436C12.4884 4.25436 12.9681 4.38396 13.39 4.62993V4.61993ZM9 16.0499H15V10.0499H9V16.0499Z" fill="white"/>
</g>
<defs>
<clipPath id="clip0_1233_2">
<rect width="24" height="26.1" fill="white"/>
</clipPath>
</defs>
</svg>
